<svg version="1.1" id="Layer_1" xmlns="http://www.w3.org/2000/svg" xmlns:xlink="http://www.w3.org/1999/xlink" x="0px" y="0px"
	 width="100%" viewBox="0 0 500 100" enable-background="new 0 0 500 100" xml:space="preserve">

<!-- RSS symbol -->
<path fill="#F7F8F8" opacity="1.000000" stroke="none"
	d="
M60.000000,70.000000
	C66.627417,70.000000 72.000000,75.372583 72.000000,82.000000
	C72.000000,88.627417 66.627417,94.000000 60.000000,94.000000
	C53.372583,94.000000 48.000000,88.627417 48.000000,82.000000
	C48.000000,75.372583 53.372583,70.000000 60.000000,70.000000
z"/>

<!-- First arc -->
<path fill="#F7F8F8" opacity="1.000000" stroke="none"
	d="
M48.000000,56.000000
	C48.000000,51.582081 51.582081,48.000000 56.000000,48.000000
	C71.464722,48.000000 84.000000,60.535278 84.000000,76.000000
	C84.000000,80.417919 80.417919,84.000000 76.000000,84.000000
	C71.582081,84.000000 68.000000,80.417919 68.000000,76.000000
	C68.000000,69.372583 62.627417,64.000000 56.000000,64.000000
	C51.582081,64.000000 48.000000,60.417919 48.000000,56.000000
z"/>

<!-- Second arc -->
<path fill="#F7F8F8" opacity="1.000000" stroke="none"
	d="
M48.000000,32.000000
	C48.000000,27.582081 51.582081,24.000000 56.000000,24.000000
	C84.719727,24.000000 108.000000,47.280273 108.000000,76.000000
	C108.000000,80.417919 104.417919,84.000000 100.000000,84.000000
	C95.582081,84.000000 92.000000,80.417919 92.000000,76.000000
	C92.000000,56.117981 75.882019,40.000000 56.000000,40.000000
	C51.582081,40.000000 48.000000,36.417919 48.000000,32.000000
z"/>

<!-- Third arc -->
<path fill="#00C02D" opacity="1.000000" stroke="none"
	d="
M48.000000,8.000000
	C48.000000,3.582081 51.582081,0.000000 56.000000,0.000000
	C97.974609,0.000000 132.000000,34.025391 132.000000,76.000000
	C132.000000,80.417919 128.417919,84.000000 124.000000,84.000000
	C119.582081,84.000000 116.000000,80.417919 116.000000,76.000000
	C116.000000,42.862785 89.137215,16.000000 56.000000,16.000000
	C51.582081,16.000000 48.000000,12.417919 48.000000,8.000000
z"/>

<!-- RSS text -->
<path fill="#F7F8F8" opacity="1.000000" stroke="none"
	d="
M180.000000,45.000000
	L195.000000,45.000000
	C200.237549,45.000000 204.500000,40.737549 204.500000,35.500000
	C204.500000,30.262451 200.237549,26.000000 195.000000,26.000000
	L175.000000,26.000000
	C169.762451,26.000000 165.500000,30.262451 165.500000,35.500000
	L165.500000,55.500000
	C165.500000,60.737549 169.762451,65.000000 175.000000,65.000000
	L195.000000,65.000000
	C200.237549,65.000000 204.500000,69.262451 204.500000,74.500000
	C204.500000,79.737549 200.237549,84.000000 195.000000,84.000000
	L180.000000,84.000000
	L180.000000,45.000000
z"/>

<path fill="#F7F8F8" opacity="1.000000" stroke="none"
	d="
M230.000000,84.000000
	L230.000000,64.500000
	C230.000000,59.262451 234.262451,55.000000 239.500000,55.000000
	L259.500000,55.000000
	C264.737549,55.000000 269.000000,59.262451 269.000000,64.500000
	C269.000000,69.737549 264.737549,74.000000 259.500000,74.000000
	L250.000000,74.000000
	L250.000000,84.000000
	L230.000000,84.000000
	M230.000000,26.000000
	L269.000000,26.000000
	L269.000000,45.000000
	L250.000000,45.000000
	L250.000000,55.000000
	L269.000000,55.000000
	L269.000000,74.000000
	L250.000000,74.000000
	L250.000000,84.000000
	L230.000000,84.000000
	L230.000000,26.000000
z"/>

<path fill="#F7F8F8" opacity="1.000000" stroke="none"
	d="
M295.000000,84.000000
	L295.000000,64.500000
	C295.000000,59.262451 299.262451,55.000000 304.500000,55.000000
	L324.500000,55.000000
	C329.737549,55.000000 334.000000,59.262451 334.000000,64.500000
	C334.000000,69.737549 329.737549,74.000000 324.500000,74.000000
	L315.000000,74.000000
	L315.000000,84.000000
	L295.000000,84.000000
	M295.000000,26.000000
	L334.000000,26.000000
	L334.000000,45.000000
	L315.000000,45.000000
	L315.000000,55.000000
	L334.000000,55.000000
	L334.000000,74.000000
	L315.000000,74.000000
	L315.000000,84.000000
	L295.000000,84.000000
	L295.000000,26.000000
z"/>

</svg>
