<svg version="1.1" id="Layer_1" xmlns="http://www.w3.org/2000/svg" xmlns:xlink="http://www.w3.org/1999/xlink" x="0px" y="0px"
	 viewBox="200 400 1520 400" xml:space="preserve">
<path fill="#01BF2D" opacity="1.000000" stroke="none"
	d="
M757.000000,677.234009
	C848.497925,677.304749 939.496338,677.222717 1030.493530,677.523804
	C1065.312256,677.638977 1100.135742,678.351135 1134.943237,679.298828
	C1171.736572,680.300537 1208.526733,681.619263 1245.293457,683.333130
	C1279.217896,684.914429 1313.144653,686.737305 1347.005493,689.309143
	C1381.838745,691.954834 1416.627563,695.309021 1451.372925,698.953735
	C1486.443481,702.632446 1521.537720,706.341003 1556.435669,711.335999
	C1592.797363,716.540405 1628.939331,723.282349 1665.170166,729.394653
	C1669.564819,730.136108 1673.914795,731.142944 1679.729248,732.318848
	C1674.704468,726.265564 1670.685913,721.100342 1666.320923,716.246582
	C1660.655640,709.946655 1654.866455,703.740967 1648.839478,697.789429
	C1644.785400,693.786133 1643.822388,689.344604 1646.953979,685.460754
	C1650.155884,681.489746 1655.057861,680.629639 1659.288940,684.573547
	C1666.568481,691.359375 1673.241699,698.801514 1680.087646,706.045349
	C1687.285522,713.661621 1694.387573,721.368286 1701.530884,729.036133
	C1702.663940,730.252380 1703.994629,731.340820 1704.889160,732.713135
	C1708.359985,738.037354 1706.837280,742.445679 1700.876465,744.348022
	C1689.511475,747.974976 1678.167114,751.680054 1666.720947,755.034485
	C1659.713013,757.088196 1652.601318,759.054199 1645.396729,760.050232
	C1642.133057,760.501526 1638.201416,759.105530 1635.162476,757.459167
	C1631.203735,755.314575 1631.142944,752.842163 1635.103149,750.929871
	C1642.682739,747.270020 1650.637329,744.384033 1658.456055,741.225586
	C1659.922485,740.633118 1661.480469,740.267090 1663.550293,739.624573
	C1647.013550,738.034180 1631.156006,736.770569 1615.366089,734.927856
	C1593.065063,732.325256 1570.823730,729.214905 1548.538696,726.469482
	C1527.241577,723.845703 1505.929077,721.341797 1484.608643,718.913696
	C1464.279907,716.598572 1443.945801,714.314758 1423.588623,712.269897
	C1407.362671,710.639954 1391.107910,709.268982 1374.848877,708.001831
	C1352.945068,706.294739 1331.030762,704.708984 1309.109375,703.243042
	C1295.486694,702.332031 1281.849121,701.575195 1268.207031,701.032349
	C1217.448242,699.012329 1166.694092,696.795532 1115.919800,695.269958
	C1080.446777,694.204102 1044.944824,693.871033 1009.453308,693.687500
	C911.129517,693.179138 812.804565,692.886719 714.479858,692.572937
	C628.160889,692.297546 541.836914,692.568970 455.524536,691.682556
	C414.069000,691.256897 372.631836,688.798035 331.192902,687.099670
	C309.392944,686.206299 287.606537,684.978699 265.815216,683.878235
	C259.162018,683.542297 252.510605,683.160950 245.863815,682.718628
	C244.628342,682.636414 243.418869,682.163635 242.982056,682.059021
	C251.433029,682.059021 260.533203,682.119751 269.632324,682.048828
	C315.789368,681.688904 361.948608,681.483093 408.102356,680.866699
	C470.742310,680.030090 533.375122,678.612549 596.016296,677.927368
	C649.507019,677.342224 703.005127,677.438965 757.000000,677.234009
z"/>
<path fill="#FBFBFB" opacity="1.000000" stroke="none"
	d="
M1249.561523,481.901428
	C1256.608032,480.512573 1263.214844,478.124878 1269.865234,477.996857
	C1286.182373,477.682831 1299.688232,485.169220 1311.526855,495.732666
	C1327.785034,510.239594 1338.672607,527.968506 1342.034058,549.751770
	C1345.475586,572.054749 1335.595825,588.012329 1317.306030,599.583923
	C1313.131104,602.225342 1308.572388,604.260010 1304.492188,606.414551
	C1307.527954,613.712830 1310.554077,620.987976 1313.843018,628.894714
	C1307.476807,630.312073 1301.616577,628.828918 1296.539673,625.401917
	C1293.052246,623.047852 1290.023926,619.700684 1287.551392,616.251831
	C1285.458130,613.331970 1283.610107,612.763123 1280.131714,613.395996
	C1258.951538,617.249023 1238.304199,616.000977 1219.243042,604.922729
	C1185.595581,585.366943 1177.323486,540.208923 1201.850220,509.924622
	C1214.088379,494.813538 1229.442871,484.613068 1249.561523,481.901428
M1283.862549,573.622925
	C1287.120117,579.519592 1290.377563,585.416260 1294.070435,592.100952
	C1301.590820,588.181885 1308.822021,585.124268 1315.274536,580.882507
	C1324.651978,574.718018 1329.203857,565.535828 1327.182007,554.268738
	C1322.430542,527.790710 1306.615601,509.750671 1282.624634,498.763947
	C1273.679321,494.667450 1263.810303,492.275726 1253.980713,494.715881
	C1239.179565,498.390167 1227.064575,506.737183 1217.578369,518.709656
	C1208.519775,530.142334 1205.045898,543.186829 1207.435791,557.558533
	C1212.956299,590.756531 1246.165527,599.950012 1273.938843,595.027893
	C1273.466919,594.106262 1272.990601,593.254150 1272.584473,592.369934
	C1269.193115,584.987671 1265.544678,577.707214 1262.539795,570.170471
	C1260.890869,566.035156 1262.422363,562.218628 1266.522095,559.988159
	C1270.607178,557.765625 1274.113403,559.309998 1276.672485,562.583130
	C1279.217041,565.837769 1281.216797,569.518433 1283.862549,573.622925
z"/>
<path fill="#FBFBFB" opacity="1.000000" stroke="none"
	d="
M325.845947,525.612183
	C325.542053,508.338074 325.218994,491.535217 325.024414,474.730865
	C324.997742,472.428345 325.237183,469.977936 326.036621,467.853027
	C326.777405,465.884003 328.257141,463.020538 329.732941,462.810577
	C331.407501,462.572357 334.078339,464.424713 335.188080,466.110657
	C337.822815,470.113434 340.305359,474.366516 341.945953,478.849121
	C352.664703,508.136230 363.403503,537.421448 373.578674,566.899597
	C378.001770,579.713623 377.861053,589.601746 375.356201,604.892944
	C368.738159,597.838562 363.902618,590.057129 361.138550,581.426086
	C355.676453,564.370239 350.924011,547.082703 346.088196,529.832092
	C341.924438,514.978882 338.063080,500.040985 334.035736,485.149231
	C333.612946,483.585846 332.972443,482.081299 331.320160,480.599030
	C331.230438,482.275848 330.996399,483.959259 331.073181,485.628418
	C331.861115,502.760803 333.028870,519.883789 333.395813,537.024353
	C333.604492,546.771301 333.331512,556.673462 331.808197,566.272949
	C330.194824,576.440063 320.937317,579.395447 313.784546,571.925598
	C307.420990,565.279846 301.831879,557.559692 297.374573,549.498840
	C290.559357,537.173950 285.001526,524.152954 278.937622,511.414215
	C278.104156,509.663391 277.429535,507.836945 275.915619,506.126648
	C274.955200,515.444092 274.034088,524.765747 273.027069,534.078125
	C269.932922,562.690674 265.083160,590.992065 257.821411,618.856323
	C257.237457,621.097046 256.449371,623.312622 255.496140,625.422363
	C254.065750,628.588135 251.657516,630.669861 247.993393,629.763184
	C244.487579,628.895691 242.597458,626.269531 243.055939,622.668030
	C243.956421,615.594482 244.972992,608.523315 246.295761,601.518066
	C253.127670,565.337036 257.444000,528.872620 259.130768,492.087280
	C259.488525,484.285370 260.291748,476.501740 260.985474,468.718201
	C261.386261,464.221344 263.864532,461.173523 268.300537,460.376526
	C272.707031,459.584808 275.855652,462.221130 277.491577,465.852448
	C282.194336,476.291260 286.830841,486.784149 290.881134,497.487488
	C298.551086,517.756104 306.997894,537.582825 319.938934,555.171326
	C320.904602,556.483765 321.988342,557.709351 323.574677,559.661255
	C327.117523,548.125916 326.011536,537.065918 325.845947,525.612183
z"/>
<path fill="#FBFBFB" opacity="1.000000" stroke="none"
	d="
M1564.689941,623.906006
	C1571.865967,624.423645 1578.630127,624.722107 1585.305908,625.654175
	C1588.768799,626.137756 1589.049927,628.181702 1586.515259,630.847656
	C1579.615723,638.104614 1570.302124,639.647705 1561.257935,641.628723
	C1543.898071,645.431274 1526.484985,648.999756 1509.051147,652.448853
	C1505.021118,653.246216 1500.729614,653.807251 1496.730957,653.246460
	C1494.535645,652.938599 1491.608643,650.354980 1491.047974,648.254028
	C1490.598511,646.570007 1492.725708,642.929199 1494.565063,642.132507
	C1501.073486,639.313538 1507.936279,637.303772 1514.692261,635.070068
	C1517.353882,634.190002 1520.087646,633.527832 1521.602173,633.100952
	C1525.122559,597.350098 1528.584961,562.188538 1532.017456,527.330627
	C1523.870850,528.595947 1515.096802,530.058594 1506.287476,531.262207
	C1503.854980,531.594543 1501.300293,531.308167 1498.831055,531.037842
	C1494.000366,530.508850 1489.891479,526.805115 1490.260254,522.883240
	C1490.700806,518.197754 1493.720459,515.717529 1498.339844,514.687012
	C1512.262085,511.581055 1526.119873,508.185944 1540.041504,505.077301
	C1548.942871,503.089691 1557.868896,501.130646 1566.871826,499.718719
	C1570.907349,499.085846 1575.180908,499.607178 1579.301392,500.036865
	C1581.276978,500.242889 1583.147705,501.453949 1586.001343,502.578400
	C1573.892578,516.222229 1557.362427,518.244446 1541.673828,524.114197
	C1550.756348,558.411316 1543.277588,592.954956 1541.696411,627.748230
	C1549.608032,626.415161 1556.924683,625.182312 1564.689941,623.906006
z"/>
<path fill="#FBFBFB" opacity="1.000000" stroke="none"
	d="
M1407.396484,617.865662
	C1386.430786,614.402771 1375.521606,600.770691 1370.363159,582.022888
	C1364.777344,561.722351 1364.904541,540.896240 1366.916260,520.069946
	C1367.318604,515.903931 1369.139648,512.099304 1373.662476,512.201477
	C1378.346069,512.307312 1380.281128,516.176636 1380.574463,520.577209
	C1381.415894,533.195557 1381.644775,545.883118 1383.150391,558.419006
	C1384.149536,566.738708 1386.102539,575.160583 1389.092285,582.976746
	C1394.397217,596.844666 1404.536865,602.556885 1419.100952,599.981812
	C1433.912354,597.363098 1446.023804,590.227356 1451.625000,575.290710
	C1452.687134,572.458313 1452.863770,568.678467 1451.942261,565.821960
	C1447.475464,551.976868 1444.235962,537.928772 1443.728271,523.371582
	C1443.598022,519.637390 1443.764893,515.472290 1445.317261,512.234924
	C1446.523560,509.719360 1450.106812,506.855377 1452.614258,506.873138
	C1455.086182,506.890625 1458.949585,509.899597 1459.710693,512.365295
	C1461.546143,518.311951 1461.941284,524.705566 1462.887573,530.923462
	C1463.532227,535.158264 1463.644653,539.540466 1464.826416,543.615662
	C1470.067749,561.689758 1476.855591,579.167908 1486.096680,595.618469
	C1489.795532,602.202942 1492.064087,608.896118 1489.469238,616.564392
	C1488.399048,619.727600 1487.119873,620.366760 1484.049194,619.030945
	C1477.811401,616.317505 1473.211792,612.066162 1470.174316,606.001953
	C1466.261230,598.189575 1462.260010,590.421387 1458.167358,582.379822
	C1448.984009,605.301575 1433.461670,618.811646 1407.396484,617.865662
z"/>
<path fill="#FBFBFB" opacity="1.000000" stroke="none"
	d="
M497.791931,523.429199
	C496.129913,508.323822 494.465729,493.646790 493.071899,478.944183
	C492.828064,476.372131 493.504456,473.639038 494.136780,471.074219
	C495.211029,466.717255 498.579468,463.823792 502.603851,463.703003
	C505.344421,463.620667 509.532898,465.646454 510.692688,467.935913
	C513.797607,474.065063 516.757263,480.679932 517.725281,487.397186
	C520.024597,503.352814 521.693787,519.448853 522.572998,535.545227
	C523.409058,550.851501 527.242981,565.259644 531.782715,579.761780
	C535.718933,592.336121 537.999817,605.428711 541.012268,618.292236
	C540.357666,618.627686 539.703064,618.963135 539.048462,619.298584
	C534.237366,614.854858 529.426208,610.411072 524.364990,605.736389
	C523.657654,607.766968 522.981873,609.727783 522.292114,611.683655
	C517.734741,624.606384 505.972168,632.588867 494.126343,630.801453
	C482.091797,628.985535 473.833374,619.212158 473.265076,605.211243
	C472.857819,595.177185 475.362091,585.711182 481.374359,577.457336
	C488.346588,567.885620 497.010651,566.257935 506.946777,572.486633
	C507.625854,572.912354 508.311127,573.328186 509.218567,573.887207
	C505.390137,556.989563 501.635864,540.419189 497.791931,523.429199
M512.442993,610.979614
	C514.100647,608.310669 516.061218,605.775269 517.316650,602.928894
	C518.260376,600.789246 519.236450,597.932617 518.564087,595.949036
	C516.574890,590.080444 513.775574,584.486511 511.396484,579.022644
	C509.440613,579.611694 507.576721,580.574341 505.666412,580.677551
	C498.138489,581.084290 494.301697,585.635376 492.767151,592.308044
	C491.705963,596.922363 491.009277,601.742249 491.058990,606.460754
	C491.127594,612.974792 496.081329,616.854614 502.483032,615.517578
	C505.764465,614.832275 508.780304,612.875305 512.442993,610.979614
z"/>
<path fill="#FBFBFB" opacity="1.000000" stroke="none"
	d="
M1674.991821,594.140137
	C1681.015381,594.183777 1687.038940,594.227478 1693.503906,594.557495
	C1693.965332,595.232056 1693.985596,595.620300 1694.005737,596.008545
	C1675.045166,602.485962 1655.751587,607.515137 1635.518311,605.829407
	C1611.617065,603.838074 1589.741943,590.212219 1584.582520,567.310120
	C1581.921753,555.499084 1583.799438,544.400391 1589.704956,534.100098
	C1602.140991,512.409180 1620.911377,499.431946 1645.594849,495.658997
	C1650.606323,494.893005 1656.112793,496.249542 1661.192993,497.459381
	C1664.334351,498.207550 1667.984741,500.577454 1666.720825,504.444733
	C1666.168945,506.133331 1662.303101,507.428589 1659.815918,507.686951
	C1637.697021,509.984650 1621.235962,521.752869 1608.794922,539.164429
	C1595.929199,557.170166 1602.427002,576.186768 1623.497192,583.835999
	C1639.178223,589.528748 1655.398438,593.061890 1672.728516,594.149719
	C1673.886475,594.279114 1674.439087,594.209595 1674.991821,594.140137
z"/>
<path fill="#FBFBFB" opacity="1.000000" stroke="none"
	d="
M426.228394,619.892517
	C437.509918,627.008789 443.474365,628.773682 454.918060,628.046509
	C447.024536,633.568115 439.289703,636.403503 430.827454,636.875549
	C412.780090,637.882507 397.877350,625.250793 393.035583,605.825806
	C386.797607,580.799316 406.725769,555.445923 432.491028,553.232300
	C439.809967,552.603516 446.731842,554.477417 452.587036,559.210876
	C460.195160,565.361572 461.574860,574.912170 454.857513,582.002625
	C450.138245,586.984192 444.316193,591.189148 438.357941,594.662415
	C430.504456,599.240417 422.034912,602.761597 413.654236,606.822388
	C415.757233,612.730774 420.810455,616.238953 426.228394,619.892517
M439.782196,576.319336
	C441.581390,574.770508 443.380585,573.221619 445.447571,571.442261
	C431.983948,566.461060 414.875732,576.584045 412.136139,591.385620
	C421.551086,586.298218 430.377563,581.528748 439.782196,576.319336
z"/>
<path fill="#FBFBFB" opacity="1.000000" stroke="none"
	d="
M858.814331,600.812317
	C840.673767,616.490356 810.640076,608.647705 804.569519,586.959595
	C801.127625,574.662842 806.610352,558.791382 816.902832,551.256958
	C823.598877,546.355286 829.771057,546.449219 835.922852,551.308228
	C836.849670,552.040283 838.411621,552.031860 839.700806,552.229065
	C843.373779,552.791016 847.603455,552.292236 850.644653,553.969116
	C865.513428,562.167419 872.287781,587.037903 858.814331,600.812317
M826.953125,565.877319
	C816.881165,579.301514 821.312256,591.407288 837.209778,593.819641
	C838.673767,594.041809 840.195435,594.060974 841.676392,593.963379
	C849.138428,593.471497 852.876892,588.420959 851.576111,581.084717
	C850.020935,572.314270 843.718323,567.692566 836.778503,563.369324
	C833.978149,565.151611 831.249329,566.888428 828.178894,568.842651
	C828.178894,567.735107 828.178894,566.952393 828.596802,565.942505
	C828.235596,565.788574 827.874390,565.634644 826.953125,565.877319
z"/>
<path fill="#FAFAFA" opacity="1.000000" stroke="none"
	d="
M971.107056,585.426880
	C974.775330,594.725891 983.673035,597.334961 991.599060,600.753845
	C996.172607,602.726685 1001.504150,602.942566 1005.932678,603.835876
	C991.183228,618.525635 967.883362,614.666321 957.285400,596.564087
	C950.348022,584.714600 952.030090,569.704102 961.103516,559.942993
	C969.968811,550.405579 985.116882,547.925171 997.409424,553.998108
	C1006.624390,558.550598 1008.735596,567.736511 1001.831360,575.346008
	C994.195801,583.761780 984.353516,586.347473 972.608521,584.221252
	C971.557251,583.870239 971.159485,583.867004 970.761719,583.863708
	C970.876831,584.384766 970.991943,584.905823 971.107056,585.426880
M992.359497,566.961609
	C993.660706,566.085571 994.961914,565.209473 996.492126,564.179260
	C985.864929,558.143188 971.607849,562.494568 971.261536,573.424744
	C978.138733,571.343262 984.899231,569.297119 992.359497,566.961609
z"/>
<path fill="#FAFAFA" opacity="1.000000" stroke="none"
	d="
M934.974365,581.012207
	C929.046021,587.953125 923.913574,595.297668 917.356506,601.005554
	C907.870056,609.263428 900.215332,607.272583 893.660889,596.455566
	C886.745117,585.042114 884.285034,572.372375 883.303345,559.365051
	C883.157104,557.426636 885.321716,555.313721 886.417236,553.281494
	C888.108521,554.589478 890.436218,555.547058 891.382385,557.265381
	C895.777954,565.248535 899.759277,573.458984 903.968079,581.546753
	C904.794739,583.135498 905.971558,584.542114 907.630554,586.977417
	C912.333069,581.118591 916.625366,575.713440 920.981628,570.360413
	C924.958862,565.472961 928.763428,560.412048 933.093018,555.854065
	C937.023376,551.716431 939.868896,552.472534 940.680359,558.199707
	C941.304932,562.607605 940.555969,567.380859 939.545288,571.791748
	C938.826660,574.928223 936.656189,577.732117 934.974365,581.012207
z"/>
<path fill="#FAFAFA" opacity="1.000000" stroke="none"
	d="
M648.162720,573.064392
	C653.170959,568.037476 657.261963,567.606628 660.300903,573.279419
	C666.222656,584.333618 671.268555,595.877197 676.230103,607.410461
	C677.377502,610.077454 676.725403,613.518555 676.902771,616.628418
	C666.685059,616.649292 661.578552,612.611877 653.841797,599.271973
	C649.116272,602.430054 644.662354,606.214233 639.557739,608.614502
	C633.117065,611.642944 626.357422,610.995728 621.072327,605.749878
	C615.881470,600.597412 615.800049,594.106506 618.212158,587.627930
	C621.960754,577.559753 629.948059,572.689819 640.071655,571.058472
	C642.132080,570.726440 644.447998,571.979675 646.861816,573.107056
	C646.014038,574.906494 645.031860,576.187378 643.871948,577.279297
	C640.492920,580.460510 636.678955,583.262329 633.730164,586.793091
	C631.148010,589.884888 628.222107,593.824707 631.510681,597.990479
	C634.720886,602.057068 639.457642,601.625671 643.927551,600.324402
	C645.628723,599.829224 647.166199,598.679260 648.691528,597.693481
	C651.236877,596.048584 651.975098,594.041321 650.729797,590.945618
	C648.438538,585.249817 646.350830,579.402344 648.162720,573.064392
z"/>
<path fill="#FAFAFA" opacity="1.000000" stroke="none"
	d="
M1041.177490,564.559082
	C1036.990601,573.801270 1038.863892,582.853027 1040.284180,591.887024
	C1040.412109,592.701599 1040.765869,593.478088 1040.939331,594.288452
	C1042.377075,601.003723 1040.305542,605.357605 1035.134888,606.529968
	C1030.465942,607.588623 1026.147095,604.158997 1025.217773,597.729614
	C1023.580933,586.405396 1022.337585,575.020569 1021.138428,563.639160
	C1020.815796,560.576721 1021.027588,557.306641 1025.769043,557.937134
	C1026.279541,558.004944 1027.137573,557.224487 1027.466553,556.632935
	C1039.030151,535.846191 1060.991455,537.969116 1076.972412,549.143005
	C1077.781860,549.708984 1078.538086,550.351135 1080.470337,551.851990
	C1070.242432,550.171204 1061.757812,552.561584 1053.324219,555.116821
	C1048.255371,556.652527 1043.918335,559.310974 1041.177490,564.559082
z"/>
<path fill="#FBFBFB" opacity="1.000000" stroke="none"
	d="
M560.950439,525.026733
	C560.833374,521.816040 560.634155,519.000122 560.800720,516.205933
	C561.098022,511.217010 564.545654,509.159821 569.796021,508.087738
	C568.153564,506.238098 566.921936,504.851105 565.662598,503.432892
	C568.573425,499.847656 573.005371,498.874176 578.787476,500.707642
	C590.508911,504.424438 597.774231,521.601440 592.092773,532.467041
	C589.258057,537.888428 584.667114,540.859802 578.441956,540.995483
	C571.549255,541.145630 566.771851,537.598511 563.450195,531.942810
	C562.295715,529.977051 561.819153,527.613281 560.950439,525.026733
z"/>
<path fill="#FAFAFA" opacity="1.000000" stroke="none"
	d="
M591.738403,620.334656
	C590.681580,624.477173 588.317871,627.628967 584.542542,627.227844
	C581.687927,626.924561 577.518494,624.846252 576.650513,622.536865
	C573.530762,614.236755 571.174194,605.588318 569.282837,596.907288
	C567.732910,589.792969 567.147156,582.456848 566.347656,575.195618
	C565.936523,571.460938 565.029480,566.705261 569.457031,565.190369
	C574.160950,563.580811 576.340454,568.055054 577.555786,571.546875
	C582.507751,585.774658 587.117249,600.123108 591.699524,614.476074
	C592.229797,616.137024 591.802612,618.103577 591.738403,620.334656
z"/>
<path fill="#ACACAC" opacity="1.000000" stroke="none"
	d="
M1694.357910,596.060913
	C1693.985596,595.620300 1693.965332,595.232056 1693.909424,594.549194
	C1695.383545,594.088989 1696.893433,593.923401 1698.403198,593.757874
	C1698.467407,594.093445 1698.531616,594.429016 1698.595825,594.764648
	C1697.300659,595.214172 1696.005371,595.663696 1694.357910,596.060913
z"/>
<path fill="#ACACAC" opacity="1.000000" stroke="none"
	d="
M1674.824097,594.007446
	C1674.439087,594.209595 1673.886475,594.279114 1673.170166,594.199951
	C1673.556519,593.992371 1674.106445,593.933533 1674.824097,594.007446
z"/>
<path fill="#FAFAFA" opacity="1.000000" stroke="none"
	d="
M1009.490051,601.507324
	C1009.505920,601.519653 1009.474182,601.494934 1009.490051,601.507324
z"/>
<path fill="#FAFAFA" opacity="1.000000" stroke="none"
	d="
M1081.493652,552.490479
	C1081.482300,552.506592 1081.505005,552.474365 1081.493652,552.490479
z"/>
</svg>
